<svg width="21" height="19" viewBox="0 0 21 19" fill="none" xmlns="http://www.w3.org/2000/svg">
<path d="M16.7602 0.595703H15.9621V2.19191C15.9621 2.47712 15.8099 2.74059 15.563 2.88311C15.3161 3.02563 15.0118 3.02563 14.7649 2.88311C14.518 2.74059 14.3659 2.47712 14.3659 2.19191V0.595703H6.38483V2.19191C6.38483 2.47712 6.23269 2.74059 5.98577 2.88311C5.73886 3.02563 5.43458 3.02563 5.18767 2.88311C4.94076 2.74059 4.78862 2.47712 4.78862 2.19191V0.595703H3.99052C2.93214 0.595703 1.91723 1.01613 1.16883 1.76454C0.420441 2.51294 0 3.52784 0 4.58622V14.1635C0 15.2218 0.420432 16.2367 1.16883 16.9851C1.91724 17.7335 2.93214 18.154 3.99052 18.154H16.7602C17.8185 18.154 18.8335 17.7335 19.5819 16.9851C20.3302 16.2367 20.7507 15.2218 20.7507 14.1635V4.58622C20.7507 3.52784 20.3303 2.51293 19.5819 1.76454C18.8335 1.01614 17.8185 0.595703 16.7602 0.595703ZM5.58672 7.77863C5.58672 7.14352 5.83898 6.53464 6.28791 6.08551C6.73703 5.63658 7.34593 5.38432 7.98103 5.38432C8.61614 5.38432 9.22503 5.63658 9.67415 6.08551C10.1231 6.53463 10.3753 7.14352 10.3753 7.77863C10.3753 8.41374 10.1231 9.02262 9.67415 9.47175C9.22504 9.92069 8.61614 10.1729 7.98103 10.1729C7.34666 10.171 6.73864 9.91819 6.29006 9.46961C5.84148 9.02102 5.58868 8.41301 5.58672 7.77863ZM7.98103 13.3654C7.76922 13.3645 7.56612 13.2816 7.41433 13.1339C7.26487 12.9832 7.18096 12.7796 7.18096 12.5672C7.18096 12.3549 7.26487 12.1513 7.41433 12.0005L12.203 7.21192C12.4055 7.00955 12.7005 6.93045 12.977 7.00456C13.2537 7.07867 13.4696 7.29459 13.5437 7.57126C13.6178 7.84774 13.5387 8.14275 13.3364 8.34533L8.54774 13.1339C8.39596 13.2816 8.19287 13.3645 7.98104 13.3654L7.98103 13.3654ZM12.7697 14.9616C12.1345 14.9616 11.5257 14.7093 11.0765 14.2604C10.6276 13.8113 10.3753 13.2024 10.3753 12.5673C10.3753 11.9321 10.6276 11.3233 11.0765 10.8741C11.5256 10.4252 12.1345 10.1729 12.7697 10.1729C13.4048 10.1729 14.0136 10.4252 14.4628 10.8741C14.9117 11.3232 15.164 11.9321 15.164 12.5673C15.162 13.2016 14.9092 13.8096 14.4606 14.2582C14.012 14.7068 13.404 14.9596 12.7697 14.9616Z" fill="#3160A8"/>
</svg>
