<svg width="21" height="20" viewBox="0 0 21 20" fill="none" xmlns="http://www.w3.org/2000/svg">
<path d="M6.38527 0.798092C6.38527 0.512877 6.23313 0.249407 5.98622 0.106889C5.7393 -0.0356296 5.43502 -0.0356296 5.18811 0.106889C4.9412 0.249407 4.78906 0.512886 4.78906 0.798092V1.59619H6.38527V0.798092Z" fill="#3160A8"/>
<path d="M15.9624 0.798092C15.9624 0.512877 15.8103 0.249407 15.5634 0.106889C15.3165 -0.0356296 15.0122 -0.0356296 14.7653 0.106889C14.5184 0.249407 14.3662 0.512886 14.3662 0.798092V1.59619H15.9624V0.798092Z" fill="#3160A8"/>
<path d="M8.77882 8.77857C8.77882 9.21931 8.42146 9.57668 7.98072 9.57668C7.53998 9.57668 7.18262 9.21931 7.18262 8.77857C7.18262 8.33783 7.53998 7.98047 7.98072 7.98047C8.42146 7.98047 8.77882 8.33783 8.77882 8.77857Z" fill="#3160A8"/>
<path d="M13.5679 13.5686C13.5679 14.0094 13.2105 14.3667 12.7698 14.3667C12.329 14.3667 11.9717 14.0094 11.9717 13.5686C11.9717 13.1279 12.329 12.7705 12.7698 12.7705C13.2105 12.7705 13.5679 13.1279 13.5679 13.5686Z" fill="#3160A8"/>
<path d="M16.7602 1.5957H15.9621V3.19191C15.9621 3.47712 15.8099 3.74059 15.563 3.88311C15.3161 4.02563 15.0118 4.02563 14.7649 3.88311C14.518 3.74059 14.3659 3.47712 14.3659 3.19191V1.5957H6.38483V3.19191C6.38483 3.47712 6.23269 3.74059 5.98578 3.88311C5.73886 4.02563 5.43458 4.02563 5.18767 3.88311C4.94076 3.74059 4.78862 3.47712 4.78862 3.19191V1.5957H3.99052C2.93214 1.5957 1.91723 2.01613 1.16883 2.76454C0.420441 3.51294 0 4.52784 0 5.58622V15.1635C0 16.2218 0.420432 17.2367 1.16883 17.9851C1.91724 18.7335 2.93214 19.154 3.99052 19.154H16.7602C17.8185 19.154 18.8335 18.7335 19.5819 17.9851C20.3302 17.2367 20.7507 16.2218 20.7507 15.1635V5.58622C20.7507 4.52784 20.3303 3.51293 19.5819 2.76454C18.8334 2.01614 17.8185 1.5957 16.7602 1.5957V1.5957ZM5.58672 8.77863C5.58672 8.14352 5.83898 7.53464 6.28791 7.08551C6.73703 6.63658 7.34593 6.38432 7.98103 6.38432C8.61614 6.38432 9.22503 6.63658 9.67415 7.08551C10.1231 7.53463 10.3753 8.14352 10.3753 8.77863C10.3753 9.41374 10.1231 10.0226 9.67415 10.4718C9.22504 10.9207 8.61614 11.1729 7.98103 11.1729C7.34666 11.171 6.73864 10.9182 6.29006 10.4696C5.84148 10.021 5.58868 9.41301 5.58672 8.77863V8.77863ZM7.98103 14.3654C7.76922 14.3645 7.56612 14.2816 7.41433 14.1339C7.26487 13.9832 7.18096 13.7796 7.18096 13.5672C7.18096 13.3549 7.26487 13.1513 7.41433 13.0005L12.203 8.21192C12.4055 8.00955 12.7005 7.93045 12.977 8.00456C13.2537 8.07867 13.4696 8.29459 13.5437 8.57126C13.6178 8.84774 13.5387 9.14275 13.3364 9.34533L8.54774 14.1339C8.39596 14.2816 8.19287 14.3645 7.98104 14.3654L7.98103 14.3654ZM12.7697 15.9616C12.1345 15.9616 11.5257 15.7093 11.0765 15.2604C10.6276 14.8113 10.3753 14.2024 10.3753 13.5673C10.3753 12.9321 10.6276 12.3233 11.0765 11.8741C11.5256 11.4252 12.1345 11.1729 12.7697 11.1729C13.4048 11.1729 14.0136 11.4252 14.4628 11.8741C14.9117 12.3232 15.164 12.9321 15.164 13.5673C15.162 14.2016 14.9092 14.8096 14.4606 15.2582C14.012 15.7068 13.404 15.9596 12.7697 15.9616Z" fill="#3160A8"/>
</svg>
